<?xml version="1.0" encoding="utf-8"?>
<!-- Generator: Adobe Illustrator 14.0.0, SVG Export Plug-In . SVG Version: 6.00 Build 43363)  -->
<!DOCTYPE svg PUBLIC "-//W3C//DTD SVG 1.0//EN" "http://www.w3.org/TR/2001/REC-SVG-20010904/DTD/svg10.dtd">
<svg version="1.0" id="Layer_1" xmlns="http://www.w3.org/2000/svg" xmlns:xlink="http://www.w3.org/1999/xlink" x="0px" y="0px"
	 width="100px" height="83.84px" viewBox="0 0 100 83.84" enable-background="new 0 0 100 83.84" xml:space="preserve">
<path d="M99.585,49.144c-6.011-6.031-12.021-12.061-18.032-18.092c-0.306-0.307-0.52-0.484-0.665-0.578
	c0.021-0.076,0.035-0.181,0.035-0.335c0-2.175,0-4.351,0-6.526c0-4.371,0-8.741,0-13.112c0-0.794-0.663-1.457-1.457-1.457
	c-3.158,0-6.315,0-9.474,0c-0.794,0-1.457,0.663-1.457,1.457c0,2.497,0,4.993,0,7.49C62.7,12.136,56.865,6.281,51.03,0.426
	c-0.304-0.304-0.645-0.424-0.975-0.424C50.037,0,50.019,0.001,50,0c-0.019,0.001-0.037,0-0.056,0.002
	c-0.33,0-0.671,0.12-0.975,0.424C32.785,16.665,16.6,32.904,0.415,49.144c-0.897,0.899-0.243,2.486,1.03,2.486
	c3.322,0,6.646,0,9.969,0c0,10.251,0,20.502,0,30.753c0,0.794,0.663,1.457,1.457,1.457c10.353,0,19.735,0,30.089,0
	c0.793,0,1.456-0.663,1.456-1.457c0-7.171,0-14.342,0-21.514c3.075,0,8.093,0,11.168,0c0,7.172,0,14.343,0,21.514
	c0,0.794,0.663,1.457,1.456,1.457c10.354,0,19.736,0,30.09,0c0.793,0,1.456-0.663,1.456-1.457c0-10.251,0-20.502,0-30.753
	c3.323,0,6.646,0,9.969,0C99.827,51.63,100.482,50.043,99.585,49.144z"/>
</svg>
